<svg width="152" height="36" viewBox="0 0 152 36" fill="none" xmlns="http://www.w3.org/2000/svg">
<g clip-path="url(#clip0_247_43)">
<path d="M48.9439 28.5049C46.4479 28.5049 44.3479 27.9529 42.6439 26.8489C40.9399 25.7209 39.7399 24.1969 39.0439 22.2769L43.2919 19.7929C44.2759 22.3609 46.2079 23.6449 49.0879 23.6449C50.4799 23.6449 51.4999 23.3929 52.1479 22.8889C52.7959 22.3849 53.1199 21.7489 53.1199 20.9809C53.1199 20.0929 52.7239 19.4089 51.9319 18.9289C51.1399 18.4249 49.7239 17.8849 47.6839 17.3089C46.5559 16.9729 45.5959 16.6369 44.8039 16.3009C44.0359 15.9649 43.2559 15.5209 42.4639 14.9689C41.6959 14.3929 41.1079 13.6729 40.6999 12.8089C40.2919 11.9449 40.0879 10.9369 40.0879 9.78488C40.0879 7.50488 40.8919 5.69288 42.4999 4.34888C44.1319 2.98088 46.0879 2.29688 48.3679 2.29688C50.4079 2.29688 52.1959 2.80088 53.7319 3.80888C55.2919 4.79288 56.5039 6.17287 57.3679 7.94887L53.1919 10.3609C52.1839 8.20087 50.5759 7.12087 48.3679 7.12087C47.3359 7.12087 46.5199 7.36088 45.9199 7.84088C45.3439 8.29688 45.0559 8.89688 45.0559 9.64088C45.0559 10.4329 45.3799 11.0809 46.0279 11.5849C46.6999 12.0649 47.9719 12.5929 49.8439 13.1689C50.6119 13.4089 51.1879 13.6009 51.5719 13.7449C51.9799 13.8649 52.5199 14.0689 53.1919 14.3569C53.8879 14.6209 54.4159 14.8729 54.7759 15.1129C55.1599 15.3529 55.5919 15.6769 56.0719 16.0849C56.5519 16.4929 56.9119 16.9129 57.1519 17.3449C57.4159 17.7769 57.6319 18.3049 57.7999 18.9289C57.9919 19.5289 58.0879 20.1889 58.0879 20.9089C58.0879 23.2369 57.2359 25.0849 55.5319 26.4529C53.8519 27.8209 51.6559 28.5049 48.9439 28.5049ZM71.1202 9.49688C73.0882 9.49688 74.7082 10.1569 75.9802 11.4769C77.2762 12.7969 77.9242 14.6209 77.9242 16.9489V28.0009H73.2802V17.5249C73.2802 16.3249 72.9562 15.4129 72.3082 14.7889C71.6602 14.1409 70.7962 13.8169 69.7162 13.8169C68.5162 13.8169 67.5563 14.1889 66.8363 14.9329C66.1163 15.6769 65.7562 16.7929 65.7562 18.2809V28.0009H61.1122V2.80087H65.7562V12.0169C66.8842 10.3369 68.6722 9.49688 71.1202 9.49688ZM97.2255 25.7689C95.3775 27.5929 93.1216 28.5049 90.4576 28.5049C87.7936 28.5049 85.5375 27.5929 83.6895 25.7689C81.8655 23.9209 80.9535 21.6649 80.9535 19.0009C80.9535 16.3369 81.8655 14.0929 83.6895 12.2689C85.5375 10.4209 87.7936 9.49688 90.4576 9.49688C93.1216 9.49688 95.3775 10.4209 97.2255 12.2689C99.0735 14.0929 99.9975 16.3369 99.9975 19.0009C99.9975 21.6649 99.0735 23.9209 97.2255 25.7689ZM86.9655 22.5649C87.9015 23.5009 89.0656 23.9689 90.4576 23.9689C91.8496 23.9689 93.0135 23.5009 93.9495 22.5649C94.8855 21.6289 95.3535 20.4409 95.3535 19.0009C95.3535 17.5609 94.8855 16.3729 93.9495 15.4369C93.0135 14.5009 91.8496 14.0329 90.4576 14.0329C89.0656 14.0329 87.9015 14.5009 86.9655 15.4369C86.0535 16.3729 85.5975 17.5609 85.5975 19.0009C85.5975 20.4409 86.0535 21.6289 86.9655 22.5649ZM113.741 9.49688C116.165 9.49688 118.229 10.4209 119.933 12.2689C121.661 14.0929 122.525 16.3369 122.525 19.0009C122.525 21.6649 121.661 23.9209 119.933 25.7689C118.229 27.5929 116.165 28.5049 113.741 28.5049C111.221 28.5049 109.277 27.6289 107.909 25.8769V35.2009H103.265V10.0009H107.909V12.1249C109.277 10.3729 111.221 9.49688 113.741 9.49688ZM109.313 22.6729C110.249 23.6089 111.437 24.0769 112.877 24.0769C114.317 24.0769 115.505 23.6089 116.441 22.6729C117.401 21.7129 117.881 20.4889 117.881 19.0009C117.881 17.5129 117.401 16.3009 116.441 15.3649C115.505 14.4049 114.317 13.9249 112.877 13.9249C111.437 13.9249 110.249 14.4049 109.313 15.3649C108.377 16.3009 107.909 17.5129 107.909 19.0009C107.909 20.4889 108.377 21.7129 109.313 22.6729Z" fill="#9333EA"/>
<path d="M147.22 24.7249C144.676 27.2449 141.58 28.5049 137.932 28.5049C134.284 28.5049 131.188 27.2449 128.644 24.7249C126.124 22.1809 124.864 19.0729 124.864 15.4009C124.864 11.7289 126.124 8.63287 128.644 6.11287C131.188 3.56888 134.284 2.29688 137.932 2.29688C141.58 2.29688 144.676 3.56888 147.22 6.11287C149.764 8.63287 151.036 11.7289 151.036 15.4009C151.036 19.0729 149.764 22.1809 147.22 24.7249ZM132.136 21.3409C133.696 22.8769 135.628 23.6449 137.932 23.6449C140.236 23.6449 142.168 22.8769 143.728 21.3409C145.288 19.7809 146.068 17.8009 146.068 15.4009C146.068 13.0009 145.288 11.0209 143.728 9.46088C142.168 7.90088 140.236 7.12087 137.932 7.12087C135.628 7.12087 133.696 7.90088 132.136 9.46088C130.576 11.0209 129.796 13.0009 129.796 15.4009C129.796 17.8009 130.576 19.7809 132.136 21.3409Z" fill="#001B38"/>
<path d="M16 30.5C24.0081 30.5 30.5 24.0081 30.5 16C30.5 7.99187 24.0081 1.5 16 1.5C7.99187 1.5 1.5 7.99187 1.5 16C1.5 24.0081 7.99187 30.5 16 30.5Z" stroke="#9333EA" stroke-width="3"/>
<path d="M15.7949 8.03393C15.6791 8.08713 15.5758 8.19666 15.532 8.31245C15.5132 8.36253 15.4976 8.60976 15.4976 8.86638C15.4976 9.3984 15.5289 9.34833 15.169 9.38275C14.8529 9.41405 14.2833 9.53923 13.914 9.66441C12.1959 10.2371 10.7939 11.4608 10.0052 13.0756C9.68916 13.7265 9.43567 14.5621 9.37934 15.1567C9.34491 15.5354 9.40438 15.4947 8.81915 15.5072C8.25584 15.5166 8.21828 15.5291 8.06807 15.7326C7.97731 15.8546 7.97731 16.1488 8.06807 16.2708C8.21828 16.4743 8.25584 16.4868 8.81915 16.4962C9.40438 16.5087 9.34491 16.468 9.37934 16.8467C9.43567 17.4413 9.68916 18.2769 10.0052 18.9278C10.797 20.5458 12.1928 21.7632 13.9265 22.3453C14.2833 22.4642 14.8435 22.5894 15.1721 22.6207C15.5226 22.6551 15.4913 22.6019 15.5038 23.184C15.5132 23.741 15.5257 23.7817 15.7292 23.9319C15.8512 24.0227 16.1454 24.0227 16.2674 23.9319C16.4709 23.7817 16.4834 23.741 16.4928 23.1902C16.499 22.846 16.5147 22.677 16.5397 22.6613C16.5616 22.6488 16.6305 22.6363 16.693 22.6363C16.9184 22.6363 17.6663 22.4767 18.0732 22.3421C19.5847 21.8445 20.8741 20.8181 21.7128 19.4442C22.1822 18.6743 22.5359 17.6478 22.6172 16.8279C22.6517 16.4774 22.5985 16.5087 23.1806 16.4962C23.7376 16.4868 23.7783 16.4743 23.9285 16.2708C24.0193 16.1488 24.0193 15.8546 23.9285 15.7326C23.7783 15.5291 23.7376 15.5166 23.1806 15.5072C22.5985 15.4947 22.6517 15.526 22.6172 15.1755C22.5828 14.8281 22.4545 14.2679 22.3199 13.8705C21.7441 12.1806 20.5236 10.791 18.9213 10.0055C18.2828 9.69258 17.4347 9.43908 16.8276 9.38275C16.4677 9.3452 16.5053 9.40779 16.4928 8.82257C16.4834 8.26238 16.4709 8.2217 16.2737 8.07461C16.1673 7.99637 15.9201 7.97447 15.7949 8.03393ZM15.5664 11.079C15.6947 11.3074 16.0296 11.3919 16.2612 11.248C16.4396 11.1353 16.499 10.9882 16.499 10.6408V10.3498L16.7243 10.3748C17.6256 10.4843 18.5739 10.863 19.3469 11.4263C20.5705 12.3183 21.4061 13.714 21.6127 15.2005L21.6534 15.501H21.3529C21.0994 15.501 21.0337 15.5135 20.9304 15.573C20.5893 15.7639 20.5987 16.2646 20.9461 16.4398C21.04 16.4899 21.1276 16.5024 21.3592 16.5024H21.6534L21.6127 16.8029C21.2684 19.2721 19.2687 21.2718 16.7995 21.6161L16.499 21.6568V21.3626C16.499 21.131 16.4865 21.0434 16.4364 20.9495C16.2612 20.6021 15.7604 20.5927 15.5695 20.9338C15.5101 21.0371 15.4976 21.1028 15.4976 21.3563V21.6568L15.3035 21.6286C14.1769 21.4815 13.188 21.0434 12.3086 20.3048C11.2821 19.4411 10.531 18.0547 10.3714 16.7278L10.3464 16.5024H10.6374C10.869 16.5024 10.9566 16.4899 11.0505 16.4398C11.4041 16.2615 11.4041 15.742 11.0505 15.5636C10.9566 15.5135 10.869 15.501 10.6374 15.501H10.3464L10.3714 15.2757C10.531 13.9487 11.2821 12.5624 12.3086 11.6986C13.0847 11.0477 13.9829 10.6158 14.9186 10.4374C15.1095 10.3999 15.3129 10.3654 15.3724 10.3623L15.4819 10.3529L15.4976 10.6659C15.507 10.8787 15.532 11.0101 15.5664 11.079Z" fill="#101A29"/>
<path d="M15.5644 14.045C15.2202 14.1201 14.8571 14.3235 14.5911 14.5927C13.8087 15.375 13.8025 16.6237 14.5755 17.3936C14.9573 17.7723 15.3766 17.9663 15.8867 17.9945C16.8006 18.0445 17.6393 17.4624 17.9178 16.5799C18.0148 16.2701 18.0148 15.7318 17.9178 15.422C17.6017 14.4268 16.5784 13.8259 15.5644 14.045ZM16.472 15.1278C16.6816 15.2405 16.7787 15.3406 16.9007 15.5753C16.9696 15.7099 16.9821 15.7756 16.9821 16.0009C16.9852 16.245 16.9758 16.2826 16.8788 16.4641C16.7599 16.6832 16.6597 16.7771 16.425 16.9022C16.2905 16.9711 16.2247 16.9836 15.9994 16.9836C15.7741 16.9836 15.7084 16.9711 15.5738 16.9022C15.3391 16.7771 15.2389 16.6832 15.12 16.4641C15.023 16.2826 15.0136 16.245 15.0167 16.0009C15.0167 15.688 15.0918 15.5002 15.2953 15.2968C15.6082 14.9838 16.0745 14.9181 16.472 15.1278Z" fill="#9333EA"/>
</g>
<defs>
<clipPath id="clip0_247_43">
<rect width="152" height="36" fill="white"/>
</clipPath>
</defs>
</svg>
